<svg xmlns="http://www.w3.org/2000/svg" xmlns:xlink="http://www.w3.org/1999/xlink">
  <symbol id="logo" viewBox="0 0 60 60">
    <g clip-path="url(#clip0_151_7)">
    <path d="M23.9358 2.06989C17.4949 2.06989 12.2549 7.30991 12.2549 13.7508C12.2549 20.1916 17.4949 25.4316 23.9358 25.4316C30.3766 25.4316 35.6166 20.1916 35.6166 13.7508C35.6166 7.30991 30.3765 2.06989 23.9358 2.06989Z" fill="#FFD652"/>
    <path d="M28.7868 20.5804C22.346 20.5804 17.106 15.3404 17.106 8.89953C17.106 6.92504 17.5991 5.06388 18.4676 3.43146C14.775 5.39598 12.2549 9.28426 12.2549 13.7505C12.2549 20.1913 17.4949 25.4314 23.9358 25.4314C28.402 25.4314 32.2903 22.9113 34.2548 19.2186C32.6225 20.0874 30.7613 20.5804 28.7868 20.5804Z" fill="#FB9D46"/>
    <path d="M48.3195 24.7932C41.8787 24.7932 36.6387 30.0332 36.6387 36.4741C36.6387 42.9149 41.8787 48.155 48.3195 48.155C54.7604 48.155 60.0004 42.9149 60.0004 36.4741C60.0004 30.0332 54.7604 24.7932 48.3195 24.7932Z" fill="#458FDE"/>
    <path d="M52.7877 43.6869C46.3468 43.6869 41.1068 38.4468 41.1068 32.006C41.1068 29.9311 41.6514 27.9811 42.604 26.2904C39.0468 28.2949 36.6387 32.1082 36.6387 36.4741C36.6387 42.9149 41.8787 48.155 48.3195 48.155C52.6854 48.155 56.4988 45.7469 58.5032 42.1897C56.8125 43.1423 54.8626 43.6869 52.7877 43.6869Z" fill="#4F5AA8"/>
    <path d="M16.7873 34.4954C10.3465 34.4954 5.10645 39.7354 5.10645 46.1762C5.10645 52.6171 10.3465 57.8571 16.7873 57.8571C23.2282 57.8571 28.4682 52.6171 28.4682 46.1762C28.4682 39.7354 23.2281 34.4954 16.7873 34.4954Z" fill="#AFF078"/>
    <path d="M20.8086 53.8357C14.3678 53.8357 9.12773 48.5957 9.12773 42.1548C9.12773 39.9633 9.73487 37.911 10.7891 36.1566C7.3875 38.2008 5.10645 41.9268 5.10645 46.1761C5.10645 52.617 10.3465 57.857 16.7873 57.857C21.0365 57.857 24.7627 55.576 26.8068 52.1744C25.0523 53.2286 23.0001 53.8357 20.8086 53.8357Z" fill="#5AC779"/>
    <path d="M27.5106 10.2945C28.0395 10.2945 28.468 9.8659 28.468 9.33703C28.468 8.80816 28.0395 8.37961 27.5106 8.37961H24.8936V7.29446C24.8936 6.76559 24.465 6.33704 23.9362 6.33704C23.4073 6.33704 22.9787 6.76559 22.9787 7.29446V8.37961H22.1489C20.9172 8.37961 19.9149 9.38191 19.9149 10.6137V12.6562C19.9149 13.888 20.9172 14.8903 22.1489 14.8903H22.9787V17.5712H20.3617C19.8329 17.5712 19.4043 17.9997 19.4043 18.5286C19.4043 19.0575 19.8329 19.486 20.3617 19.486H22.9787V20.5712C22.9787 21.1001 23.4073 21.5286 23.9362 21.5286C24.465 21.5286 24.8936 21.1001 24.8936 20.5712V19.486H25.7234C26.9551 19.486 27.9574 18.4837 27.9574 17.252V15.2094C27.9574 13.9776 26.9551 12.9753 25.7234 12.9753H24.8936V10.2945H27.5106ZM25.7234 14.8902C25.8994 14.8902 26.0425 15.0333 26.0425 15.2093V17.2519C26.0425 17.4279 25.8994 17.571 25.7234 17.571H24.8936V14.8901L25.7234 14.8902ZM22.9787 12.9752H22.1489C21.9729 12.9752 21.8298 12.8321 21.8298 12.6561V10.6136C21.8298 10.4375 21.9729 10.2945 22.1489 10.2945H22.9787V12.9752Z" fill="#FF7452"/>
    <path d="M53.1704 40.8783H47.7141C47.748 40.8085 47.7807 40.7363 47.8119 40.6615C48.2242 39.6772 48.3063 38.5102 48.0644 37.1761H49.3406C49.8694 37.1761 50.298 36.7476 50.298 36.2187C50.298 35.6899 49.8694 35.2613 49.3406 35.2613H47.5365C47.4235 34.9497 47.2965 34.631 47.1548 34.3052C46.7753 33.4325 46.7716 32.671 47.1439 32.1032C47.5058 31.5512 48.1234 31.304 48.5745 31.304C50.0347 31.304 50.425 33.2435 50.4418 33.3305C50.5383 33.8486 51.0358 34.1917 51.5544 34.0972C52.0746 34.0026 52.4197 33.5041 52.325 32.9839C52.0989 31.7406 51.0243 29.3893 48.5745 29.3893C47.3955 29.3893 46.2051 30.0425 45.5423 31.0535C44.8096 32.171 44.7586 33.5971 45.3985 35.0689C45.4271 35.1347 45.452 35.1972 45.4789 35.2617H44.2338C43.7049 35.2617 43.2764 35.6902 43.2764 36.2191C43.2764 36.7479 43.7049 37.1765 44.2338 37.1765H46.111C46.7722 40.1031 45.3119 40.8736 45.1582 40.9452C44.7191 41.0976 44.4711 41.5376 44.5463 41.9976C44.6221 42.4605 45.0414 42.7934 45.5105 42.7934H53.1701C53.699 42.7934 54.1276 42.3648 54.1276 41.836C54.1279 41.3068 53.6991 40.8783 53.1704 40.8783Z" fill="#89DCFC"/>
    <path d="M20.1215 49.8452C20.0938 49.8522 17.3237 50.5238 15.7012 49.2683C15.3348 48.9848 15.0469 48.6125 14.8378 48.1549H17.8087C18.3375 48.1549 18.7661 47.7263 18.7661 47.1974C18.7661 46.6686 18.3375 46.24 17.8087 46.24H14.4324C14.4283 46.1356 14.4257 46.0295 14.4257 45.9209C14.4257 45.8123 14.4283 45.7062 14.4324 45.6018H17.8087C18.3375 45.6018 18.7661 45.1733 18.7661 44.6444C18.7661 44.1155 18.3375 43.687 17.8087 43.687H14.8381C15.0462 43.2316 15.3321 42.8608 15.696 42.5779C17.3278 41.309 20.0878 41.9883 20.1237 41.9974C20.6354 42.129 21.1562 41.8215 21.2888 41.3103C21.4215 40.7985 21.1142 40.2759 20.6022 40.1432C20.4528 40.1043 16.9131 39.215 14.5295 41.0593C13.6941 41.7056 13.1157 42.5853 12.7985 43.687H11.6811C11.1522 43.687 10.7236 44.1155 10.7236 44.6444C10.7236 45.1733 11.1522 45.6018 11.6811 45.6018H12.5171C12.5138 45.7073 12.5109 45.8129 12.5109 45.9209C12.5109 46.0291 12.5138 46.1347 12.5171 46.24H11.6811C11.1522 46.24 10.7236 46.6686 10.7236 47.1974C10.7236 47.7263 11.1522 48.1549 11.6811 48.1549H12.7984C13.1155 49.2565 13.694 50.1363 14.5294 50.7825C15.7296 51.7113 17.2228 51.9468 18.429 51.9468C19.6179 51.9467 20.5279 51.7179 20.602 51.6986C21.1139 51.5659 21.4214 51.0433 21.2887 50.5315C21.1559 50.0201 20.6344 49.7119 20.1215 49.8452Z" fill="#00A085"/>
    <path d="M10.9208 17.1519C11.248 16.7366 11.1767 16.1346 10.7614 15.8073C10.3463 15.4801 9.74434 15.5512 9.4168 15.9667C5.76196 20.6038 3.82989 26.1943 3.82989 32.1337C3.82989 33.0393 3.87829 33.949 3.97052 34.8482L1.67306 32.2637C1.32185 31.8681 0.716815 31.8325 0.321425 32.1841C-0.0738478 32.5354 -0.109473 33.1405 0.241855 33.5357L4.327 38.1315C4.50864 38.3359 4.76903 38.4529 5.04255 38.4529C5.31595 38.4529 5.57657 38.3359 5.75809 38.1315L9.84324 33.5357C10.1946 33.1405 10.1589 32.5354 9.76367 32.1841C9.3684 31.8326 8.76324 31.8684 8.41203 32.2637L5.92227 35.0645C5.80649 34.097 5.74485 33.1129 5.74485 32.1337C5.74485 26.6286 7.53465 21.4479 10.9208 17.1519Z" fill="#4C4C4C"/>
    <path d="M47.281 50.201C47.1442 49.9642 46.9126 49.7971 46.645 49.742L40.6224 48.502C40.1049 48.3954 39.5982 48.7287 39.4915 49.2467C39.3848 49.7647 39.7183 50.2709 40.2361 50.3775L43.9065 51.1333C43.1269 51.7174 42.3054 52.2628 41.4572 52.7524C36.6898 55.5049 31.3086 56.5454 25.8946 55.7607C25.373 55.6855 24.8856 56.0477 24.8098 56.5711C24.734 57.0943 25.0968 57.58 25.6202 57.6559C26.8851 57.8392 28.1481 57.9301 29.4033 57.9301C33.9464 57.9301 38.3847 56.7374 42.4147 54.4106C43.1991 53.9579 43.9628 53.4611 44.6952 52.9317L43.6056 56.2136C43.2174 57.3833 45.0314 57.9962 45.4229 56.8169L47.3604 50.9814C47.4467 50.7218 47.4177 50.4377 47.281 50.201Z" fill="#4C4C4C"/>
    <path d="M42.4153 9.85651C41.6312 9.4037 40.8192 8.99073 39.9942 8.62101L43.3811 7.92374C43.8991 7.8171 44.2325 7.31085 44.1258 6.79288C44.0192 6.27492 43.5136 5.94175 42.9949 6.04828L36.9723 7.28812C36.7045 7.34331 36.473 7.51019 36.3363 7.74714C36.1996 7.98409 36.1706 8.26804 36.2567 8.52749L38.1942 14.3632C38.3276 14.7648 38.7015 15.0192 39.1028 15.0192C39.2027 15.0192 39.3044 15.0034 39.4045 14.9702C39.9063 14.8035 40.1782 14.2617 40.0115 13.7599L38.8306 10.2033C39.7265 10.5865 40.6096 11.0252 41.4576 11.5148C46.2252 14.2674 49.8166 18.4077 51.8443 23.4882C52.303 24.6371 54.0802 23.9248 53.6228 22.7783C51.4344 17.2946 47.559 12.8262 42.4153 9.85651Z" fill="#4C4C4C"/>
    </g>
    <defs>
    <clipPath id="clip0_151_7">
    <rect width="60" height="60" fill="white"/>
    </clipPath>
    </defs>
  </symbol>
  <symbol id="" viewBox="">
  </symbol>
  <symbol id="" viewBox="">
  </symbol>
  <symbol id="" viewBox="">
  </symbol>
  <symbol id="" viewBox="">
  </symbol>
  <symbol id="" viewBox="">
  </symbol>
</svg>

<svg width="60" height="60" viewBox="0 0 60 60" fill="none" xmlns="http://www.w3.org/2000/svg">
<g clip-path="url(#clip0_151_7)">
<path d="M23.9358 2.06989C17.4949 2.06989 12.2549 7.30991 12.2549 13.7508C12.2549 20.1916 17.4949 25.4316 23.9358 25.4316C30.3766 25.4316 35.6166 20.1916 35.6166 13.7508C35.6166 7.30991 30.3765 2.06989 23.9358 2.06989Z" fill="#FFD652"/>
<path d="M28.7868 20.5804C22.346 20.5804 17.106 15.3404 17.106 8.89953C17.106 6.92504 17.5991 5.06388 18.4676 3.43146C14.775 5.39598 12.2549 9.28426 12.2549 13.7505C12.2549 20.1913 17.4949 25.4314 23.9358 25.4314C28.402 25.4314 32.2903 22.9113 34.2548 19.2186C32.6225 20.0874 30.7613 20.5804 28.7868 20.5804Z" fill="#FB9D46"/>
<path d="M48.3195 24.7932C41.8787 24.7932 36.6387 30.0332 36.6387 36.4741C36.6387 42.9149 41.8787 48.155 48.3195 48.155C54.7604 48.155 60.0004 42.9149 60.0004 36.4741C60.0004 30.0332 54.7604 24.7932 48.3195 24.7932Z" fill="#458FDE"/>
<path d="M52.7877 43.6869C46.3468 43.6869 41.1068 38.4468 41.1068 32.006C41.1068 29.9311 41.6514 27.9811 42.604 26.2904C39.0468 28.2949 36.6387 32.1082 36.6387 36.4741C36.6387 42.9149 41.8787 48.155 48.3195 48.155C52.6854 48.155 56.4988 45.7469 58.5032 42.1897C56.8125 43.1423 54.8626 43.6869 52.7877 43.6869Z" fill="#4F5AA8"/>
<path d="M16.7873 34.4954C10.3465 34.4954 5.10645 39.7354 5.10645 46.1762C5.10645 52.6171 10.3465 57.8571 16.7873 57.8571C23.2282 57.8571 28.4682 52.6171 28.4682 46.1762C28.4682 39.7354 23.2281 34.4954 16.7873 34.4954Z" fill="#AFF078"/>
<path d="M20.8086 53.8357C14.3678 53.8357 9.12773 48.5957 9.12773 42.1548C9.12773 39.9633 9.73487 37.911 10.7891 36.1566C7.3875 38.2008 5.10645 41.9268 5.10645 46.1761C5.10645 52.617 10.3465 57.857 16.7873 57.857C21.0365 57.857 24.7627 55.576 26.8068 52.1744C25.0523 53.2286 23.0001 53.8357 20.8086 53.8357Z" fill="#5AC779"/>
<path d="M27.5106 10.2945C28.0395 10.2945 28.468 9.8659 28.468 9.33703C28.468 8.80816 28.0395 8.37961 27.5106 8.37961H24.8936V7.29446C24.8936 6.76559 24.465 6.33704 23.9362 6.33704C23.4073 6.33704 22.9787 6.76559 22.9787 7.29446V8.37961H22.1489C20.9172 8.37961 19.9149 9.38191 19.9149 10.6137V12.6562C19.9149 13.888 20.9172 14.8903 22.1489 14.8903H22.9787V17.5712H20.3617C19.8329 17.5712 19.4043 17.9997 19.4043 18.5286C19.4043 19.0575 19.8329 19.486 20.3617 19.486H22.9787V20.5712C22.9787 21.1001 23.4073 21.5286 23.9362 21.5286C24.465 21.5286 24.8936 21.1001 24.8936 20.5712V19.486H25.7234C26.9551 19.486 27.9574 18.4837 27.9574 17.252V15.2094C27.9574 13.9776 26.9551 12.9753 25.7234 12.9753H24.8936V10.2945H27.5106ZM25.7234 14.8902C25.8994 14.8902 26.0425 15.0333 26.0425 15.2093V17.2519C26.0425 17.4279 25.8994 17.571 25.7234 17.571H24.8936V14.8901L25.7234 14.8902ZM22.9787 12.9752H22.1489C21.9729 12.9752 21.8298 12.8321 21.8298 12.6561V10.6136C21.8298 10.4375 21.9729 10.2945 22.1489 10.2945H22.9787V12.9752Z" fill="#FF7452"/>
<path d="M53.1704 40.8783H47.7141C47.748 40.8085 47.7807 40.7363 47.8119 40.6615C48.2242 39.6772 48.3063 38.5102 48.0644 37.1761H49.3406C49.8694 37.1761 50.298 36.7476 50.298 36.2187C50.298 35.6899 49.8694 35.2613 49.3406 35.2613H47.5365C47.4235 34.9497 47.2965 34.631 47.1548 34.3052C46.7753 33.4325 46.7716 32.671 47.1439 32.1032C47.5058 31.5512 48.1234 31.304 48.5745 31.304C50.0347 31.304 50.425 33.2435 50.4418 33.3305C50.5383 33.8486 51.0358 34.1917 51.5544 34.0972C52.0746 34.0026 52.4197 33.5041 52.325 32.9839C52.0989 31.7406 51.0243 29.3893 48.5745 29.3893C47.3955 29.3893 46.2051 30.0425 45.5423 31.0535C44.8096 32.171 44.7586 33.5971 45.3985 35.0689C45.4271 35.1347 45.452 35.1972 45.4789 35.2617H44.2338C43.7049 35.2617 43.2764 35.6902 43.2764 36.2191C43.2764 36.7479 43.7049 37.1765 44.2338 37.1765H46.111C46.7722 40.1031 45.3119 40.8736 45.1582 40.9452C44.7191 41.0976 44.4711 41.5376 44.5463 41.9976C44.6221 42.4605 45.0414 42.7934 45.5105 42.7934H53.1701C53.699 42.7934 54.1276 42.3648 54.1276 41.836C54.1279 41.3068 53.6991 40.8783 53.1704 40.8783Z" fill="#89DCFC"/>
<path d="M20.1215 49.8452C20.0938 49.8522 17.3237 50.5238 15.7012 49.2683C15.3348 48.9848 15.0469 48.6125 14.8378 48.1549H17.8087C18.3375 48.1549 18.7661 47.7263 18.7661 47.1974C18.7661 46.6686 18.3375 46.24 17.8087 46.24H14.4324C14.4283 46.1356 14.4257 46.0295 14.4257 45.9209C14.4257 45.8123 14.4283 45.7062 14.4324 45.6018H17.8087C18.3375 45.6018 18.7661 45.1733 18.7661 44.6444C18.7661 44.1155 18.3375 43.687 17.8087 43.687H14.8381C15.0462 43.2316 15.3321 42.8608 15.696 42.5779C17.3278 41.309 20.0878 41.9883 20.1237 41.9974C20.6354 42.129 21.1562 41.8215 21.2888 41.3103C21.4215 40.7985 21.1142 40.2759 20.6022 40.1432C20.4528 40.1043 16.9131 39.215 14.5295 41.0593C13.6941 41.7056 13.1157 42.5853 12.7985 43.687H11.6811C11.1522 43.687 10.7236 44.1155 10.7236 44.6444C10.7236 45.1733 11.1522 45.6018 11.6811 45.6018H12.5171C12.5138 45.7073 12.5109 45.8129 12.5109 45.9209C12.5109 46.0291 12.5138 46.1347 12.5171 46.24H11.6811C11.1522 46.24 10.7236 46.6686 10.7236 47.1974C10.7236 47.7263 11.1522 48.1549 11.6811 48.1549H12.7984C13.1155 49.2565 13.694 50.1363 14.5294 50.7825C15.7296 51.7113 17.2228 51.9468 18.429 51.9468C19.6179 51.9467 20.5279 51.7179 20.602 51.6986C21.1139 51.5659 21.4214 51.0433 21.2887 50.5315C21.1559 50.0201 20.6344 49.7119 20.1215 49.8452Z" fill="#00A085"/>
<path d="M10.9208 17.1519C11.248 16.7366 11.1767 16.1346 10.7614 15.8073C10.3463 15.4801 9.74434 15.5512 9.4168 15.9667C5.76196 20.6038 3.82989 26.1943 3.82989 32.1337C3.82989 33.0393 3.87829 33.949 3.97052 34.8482L1.67306 32.2637C1.32185 31.8681 0.716815 31.8325 0.321425 32.1841C-0.0738478 32.5354 -0.109473 33.1405 0.241855 33.5357L4.327 38.1315C4.50864 38.3359 4.76903 38.4529 5.04255 38.4529C5.31595 38.4529 5.57657 38.3359 5.75809 38.1315L9.84324 33.5357C10.1946 33.1405 10.1589 32.5354 9.76367 32.1841C9.3684 31.8326 8.76324 31.8684 8.41203 32.2637L5.92227 35.0645C5.80649 34.097 5.74485 33.1129 5.74485 32.1337C5.74485 26.6286 7.53465 21.4479 10.9208 17.1519Z" fill="#4C4C4C"/>
<path d="M47.281 50.201C47.1442 49.9642 46.9126 49.7971 46.645 49.742L40.6224 48.502C40.1049 48.3954 39.5982 48.7287 39.4915 49.2467C39.3848 49.7647 39.7183 50.2709 40.2361 50.3775L43.9065 51.1333C43.1269 51.7174 42.3054 52.2628 41.4572 52.7524C36.6898 55.5049 31.3086 56.5454 25.8946 55.7607C25.373 55.6855 24.8856 56.0477 24.8098 56.5711C24.734 57.0943 25.0968 57.58 25.6202 57.6559C26.8851 57.8392 28.1481 57.9301 29.4033 57.9301C33.9464 57.9301 38.3847 56.7374 42.4147 54.4106C43.1991 53.9579 43.9628 53.4611 44.6952 52.9317L43.6056 56.2136C43.2174 57.3833 45.0314 57.9962 45.4229 56.8169L47.3604 50.9814C47.4467 50.7218 47.4177 50.4377 47.281 50.201Z" fill="#4C4C4C"/>
<path d="M42.4153 9.85651C41.6312 9.4037 40.8192 8.99073 39.9942 8.62101L43.3811 7.92374C43.8991 7.8171 44.2325 7.31085 44.1258 6.79288C44.0192 6.27492 43.5136 5.94175 42.9949 6.04828L36.9723 7.28812C36.7045 7.34331 36.473 7.51019 36.3363 7.74714C36.1996 7.98409 36.1706 8.26804 36.2567 8.52749L38.1942 14.3632C38.3276 14.7648 38.7015 15.0192 39.1028 15.0192C39.2027 15.0192 39.3044 15.0034 39.4045 14.9702C39.9063 14.8035 40.1782 14.2617 40.0115 13.7599L38.8306 10.2033C39.7265 10.5865 40.6096 11.0252 41.4576 11.5148C46.2252 14.2674 49.8166 18.4077 51.8443 23.4882C52.303 24.6371 54.0802 23.9248 53.6228 22.7783C51.4344 17.2946 47.559 12.8262 42.4153 9.85651Z" fill="#4C4C4C"/>
</g>
<defs>
<clipPath id="clip0_151_7">
<rect width="60" height="60" fill="white"/>
</clipPath>
</defs>
</svg>
